# xmcd
#
# Track frame offsets:
#	182
#	15765
#	28797
#	42942
#	57087
#	76385
#	92600
#	106325
#	120655
#	136117
#	149662
#
# Disc length: 2209 seconds
#
# Revision: 2
# Processed by: cddbd v1.5.1PL0 Copyright (c) Steve Scherf et al.
# Submitted via: dBpowerAMP V4.0
#
DISCID=85089f0b
DTITLE=Billy Joe Royal - Out Of The Shadows
DYEAR=1990
DGENRE=Country
TTITLE0=Searchin' For Some Kind Of Clue
TTITLE1=Before The Night Is Over
TTITLE2=Old Friends Don't Make Good Lovers
TTITLE3=There's A Method To My Sadness
TTITLE4=Free Me
TTITLE5=From Lover To Lover
TTITLE6=How Could You Leave Me
TTITLE7=We Had Love
TTITLE8=A Ring Where A Ring Used To Be
TTITLE9=How Hard Can It Be
TTITLE10=If The Jukebox Took Teardrops
EXTD=07567-82104-26
EXTT0=
EXTT1=
EXTT2=
EXTT3=
EXTT4=
EXTT5=
EXTT6=
EXTT7=
EXTT8=
EXTT9=
EXTT10=
PLAYORDER=
